<?xml version="1.0" encoding="UTF-8" standalone="no"?>
<svg
   xmlns:dc="http://purl.org/dc/elements/1.1/"
   xmlns:cc="http://creativecommons.org/ns#"
   xmlns:rdf="http://www.w3.org/1999/02/22-rdf-syntax-ns#"
   xmlns:svg="http://www.w3.org/2000/svg"
   xmlns="http://www.w3.org/2000/svg"
   xmlns:xlink="http://www.w3.org/1999/xlink"
   xmlns:sodipodi="http://sodipodi.sourceforge.net/DTD/sodipodi-0.dtd"
   xmlns:inkscape="http://www.inkscape.org/namespaces/inkscape"
   version="1.0"
   x="0px"
   y="0px"
   width="213"
   height="311"
   viewBox="0 0 213 211"
   xml:space="preserve"
   id="svg2"
   inkscape:version="0.91 r13725"
   sodipodi:docname="landscape-orientation.svg"><metadata
     id="metadata30"><rdf:RDF><cc:Work
         rdf:about=""><dc:format>image/svg+xml</dc:format><dc:type
           rdf:resource="http://purl.org/dc/dcmitype/StillImage" /></cc:Work></rdf:RDF></metadata><sodipodi:namedview
     pagecolor="#ffffff"
     bordercolor="#666666"
     borderopacity="1"
     objecttolerance="10"
     gridtolerance="10"
     guidetolerance="10"
     inkscape:pageopacity="0"
     inkscape:pageshadow="2"
     inkscape:window-width="1920"
     inkscape:window-height="1056"
     id="namedview28"
     showgrid="false"
     inkscape:zoom="2.1463305"
     inkscape:cx="47.146043"
     inkscape:cy="135.03522"
     inkscape:window-x="0"
     inkscape:window-y="24"
     inkscape:window-maximized="1"
     inkscape:current-layer="svg2" /><defs
     id="defs4"><pattern
       inkscape:collect="always"
       xlink:href="#lines2"
       id="pattern3358"
       patternTransform="matrix(0,-1,-1,0,213.5,213.5)" /><pattern
       id="lines1"
       viewBox="0 0 2 2"
       patternUnits="userSpaceOnUse"
       width="2"
       height="2"><rect
         style="fill:#0AE3A0;"
         x="0"
         y="0"
         width="2"
         height="1"
         id="rect7" /><rect
         style="fill:#079E70;"
         x="0"
         y="1"
         width="2"
         height="1"
         id="rect9" /></pattern><pattern
       id="lines2"
       viewBox="0 0 2 2"
       patternUnits="userSpaceOnUse"
       width="2"
       height="2"><rect
         style="fill:#FFFFFF;"
         x="0"
         y="0"
         width="2"
         height="1"
         id="rect12" /><rect
         style="fill:#B2B2B2;"
         x="0"
         y="1"
         width="2"
         height="1"
         id="rect14" /></pattern></defs><path
     style="fill:url(#lines1);"
     d="M198.3,168.3c-3,0-5.4-2.4-5.4-5.3v-14.8c0-2.9,2.4-5.3,5.4-5.3c3,0,5.4,2.4,5.4,5.3V163  C203.6,165.9,201.2,168.3,198.3,168.3 M198.3,146.1c-1.2,0-2.1,0.9-2.1,2.1V163c0,1.2,1,2.1,2.1,2.1c1.2,0,2.1-0.9,2.1-2.1v-14.8  C200.4,147,199.5,146.1,198.3,146.1"
     id="path16" /><path
     style="fill:url(#lines1);"
     d="M16.7,163.8c-4.6,0-8.3-3.7-8.3-8.2c0-4.5,3.7-8.2,8.3-8.2s8.3,3.7,8.3,8.2  C25,160.1,21.3,163.8,16.7,163.8 M16.7,150.5c-2.9,0-5.1,2.2-5.1,5c0,2.8,2.3,5,5.1,5s5.1-2.3,5.1-5  C21.8,152.8,19.5,150.5,16.7,150.5"
     id="path18" /><path
     style="fill:url(#lines1);"
     d="M31.7,198c-0.4,0-0.8-0.2-1.1-0.5c-0.3-0.3-0.5-0.7-0.5-1.1v-81.6c0-0.4,0.2-0.8,0.5-1.1  c0.3-0.3,0.7-0.5,1.1-0.5h153.5c0.4,0,0.8,0.2,1.1,0.5c0.3,0.3,0.5,0.7,0.5,1.1v81.6c0,0.4-0.2,0.8-0.5,1.1  c-0.3,0.3-0.7,0.5-1.1,0.5H31.7z M33.3,194.8h150.3v-78.4H33.3V194.8z"
     id="path20" /><path
     style="fill:url(#lines1);"
     d="M48.4,19.9c-3,0-5.4-2.4-5.4-5.3c0-2.9,2.4-5.3,5.4-5.3h15c3,0,5.4,2.4,5.4,5.3  c0,2.9-2.4,5.3-5.4,5.3H48.4z M48.4,12.5c-1.2,0-2.1,0.9-2.1,2.1c0,1.2,1,2.1,2.1,2.1h15c1.2,0,2.1-0.9,2.1-2.1c0-1.2-1-2.1-2.1-2.1  H48.4z"
     id="path22" /><path
     style="fill:url(#lines1);"
     d="M15.4,211c-0.5,0-1.1,0-1.6-0.1l-0.3,0c-0.3,0-0.6-0.1-0.9-0.1l-0.1,0h-0.1  c-0.5-0.1-0.9-0.2-1.4-0.4c-0.6-0.2-1.1-0.4-1.7-0.6C3.6,207.4,0,202,0,195.9V15.1C0,6.8,6.8,0,15.2,0h81.3  c8.4,0,15.2,6.8,15.2,15.1v85.1h86c8.4,0,15.2,6.8,15.2,15.1v80.6c0,8.3-6.8,15.1-15.2,15.1H15.4z M13.5,207.6  c0.2,0.1,0.4,0.1,0.7,0.1c0.1,0,0.2,0,0.3,0c0.2,0,0.5,0,0.9,0h182.4c6.6,0,12-5.3,12-11.9v-80.6c0-6.6-5.4-11.9-12-11.9H15.4  c-6.6,0-12,5.3-12,11.9v80.6c0,3.6,1.6,6.9,4.4,9.2l0.9,0.7c0.3,0.3,0.7,0.5,1.2,0.7c0.4,0.3,1.1,0.6,1.9,0.8  C12.4,207.4,12.9,207.5,13.5,207.6 M15.2,3.2c-6.6,0-12,5.3-12,11.9v90.8l2-1.8c2-1.8,4.4-3,6.9-3.5l1-0.2V27.6  c0-0.4,0.2-0.8,0.5-1.1c0.3-0.3,0.7-0.5,1.1-0.5h82.4c0.4,0,0.8,0.2,1.1,0.5c0.3,0.3,0.5,0.7,0.5,1.1v72.6h9.9V15.1  c0-6.6-5.4-11.9-12-11.9H15.2z M16.3,100.2h79.1v-71H16.3V100.2z"
     id="path24" /><path
     style="fill:url(#pattern3358)"
     d="m 146.8,43.4 c 0,0.2 0,0.4 0.1,0.6 0.1,0.2 0.2,0.4 0.3,0.5 l 8,8.1 c 0.3,0.3 0.7,0.5 1.1,0.5 0.4,0 0.8,-0.2 1.1,-0.5 0.3,-0.3 0.5,-0.7 0.5,-1.2 0,-0.4 -0.2,-0.8 -0.5,-1.1 l -5.3,-5.3 5.9,0 c 4.4,0 8.5,1.7 11.5,4.8 3.1,3.1 4.8,7.3 4.8,11.6 l 0,5.9 c 0,0.9 0.7,1.6 1.6,1.6 0.9,0 1.6,-0.7 1.6,-1.6 l 0,-5.9 c 0,-10.8 -8.8,-19.7 -19.5,-19.7 l -5.9,0 5.4,-5.2 c 0.3,-0.3 0.5,-0.7 0.5,-1.1 0,-0.4 -0.2,-0.8 -0.5,-1.1 -0.3,-0.3 -0.7,-0.5 -1.1,-0.5 -0.4,0 -0.8,0.2 -1.1,0.5 l -8,8 c -0.1,0.1 -0.2,0.3 -0.3,0.5 -0.1,0.2 -0.2,0.4 -0.2,0.6"
     id="path26"
     inkscape:connector-curvature="0" /></svg>